<?xml version="1.0" encoding="UTF-8"?>
<svg width="23px" height="14px" viewBox="0 0 23 14" version="1.1" xmlns="http://www.w3.org/2000/svg" xmlns:xlink="http://www.w3.org/1999/xlink">
    <!-- Generator: sketchtool 47 (45396) - http://www.bohemiancoding.com/sketch -->
    <title>5DDB2A8C-0D22-4232-A1E3-B2E71763E2A0</title>
    <desc>Created with sketchtool.</desc>
    <defs></defs>
    <g id="mis" stroke="none" stroke-width="1" fill="none" fill-rule="evenodd">
        <g id="unibook_light_mis_2" transform="translate(-44.000000, -283.000000)" fill-rule="nonzero" fill="#4B74FF">
            <g id="Sidebar" transform="translate(15.000000, 70.000000)">
                <g id="Navigation-Bar" transform="translate(0.000000, 156.000000)">
                    <g id="Group-17" transform="translate(29.000000, 50.000000)">
                        <g id="icon_kadrlar_on" transform="translate(0.000000, 7.000000)">
                            <path d="M11.4820371,7 L11.4820371,7 C11.4865279,7 11.4910186,7 11.5,7 C11.5044907,7 11.5089814,7 11.5179629,7 L11.5179629,7 C14.3965106,6.96569273 13.9788742,2.77040407 13.9788742,2.77040407 C13.8621156,-0.0329897602 11.7110636,-0.00848456944 11.5,0.00131750688 C11.2889364,-0.00848456944 9.14237508,-0.0329897602 9.0211258,2.77040407 C9.0211258,2.77530511 8.60348939,6.97059377 11.4820371,7 Z" id="Shape"></path>
                            <path d="M17.9868609,8 L17.9868609,8 C17.9913277,8 17.9957945,8 18.0002613,8 C18.0047282,8 18.009195,8 18.0136618,8 L18.0136618,8 C20.3140733,7.97824717 19.9835288,4.9807078 19.9835288,4.9807078 C19.8897256,2.97944783 18.1700004,2.99685009 18.0002613,3.00120066 C17.8305222,2.99249953 16.1107971,2.97944783 16.0169939,4.9807078 C16.0169939,4.98505836 15.6819825,7.97824717 17.9868609,8 Z" id="Shape"></path>
                            <path d="M22.9952907,11.7728285 C22.9764537,11.1135857 22.8398853,10.6547884 22.1287879,10.2316258 C21.1822277,9.67037862 20.1226454,9.18485523 20.1226454,9.18485523 L19.2796888,11.7060134 L18.7899263,10.3830735 C19.6517199,9.24276169 18.728706,9.18485523 18.5638821,9.18485523 L18.5638821,9.18485523 L18.5591728,9.18485523 L18.5544636,9.18485523 L18.5544636,9.18485523 C18.3896396,9.18485523 17.4666257,9.24276169 18.3284193,10.3830735 L17.8386568,11.701559 L16.9957002,9.18040089 C16.9957002,9.18040089 16.6943079,9.31848552 16.270475,9.53229399 C16.1715807,9.45657016 16.0632678,9.38084633 15.9408272,9.30957684 C14.7635135,8.61024499 13.4496314,8.00445434 13.4496314,8.00445434 L12.4041769,11.1358575 L11.7919738,9.4922049 C12.8656839,8.07572383 11.7166257,8.00445434 11.5094185,8 L11.5094185,8 L11.5047093,8 L11.5,8 L11.5,8 C11.2927928,8 10.1437346,8.07126949 11.2174447,9.4922049 L10.6052416,11.1358575 L9.55978706,8.00445434 C9.55978706,8.00445434 8.245905,8.61024499 7.06859132,9.30957684 C6.94144144,9.38530067 6.83312858,9.4610245 6.73423423,9.53674833 C6.30569206,9.31848552 5.9995905,9.18040089 5.9995905,9.18040089 L5.15663391,11.701559 L4.66687142,10.3830735 C5.52866503,9.24276169 4.60565111,9.18485523 4.44082719,9.18485523 L4.44082719,9.18485523 L4.43611794,9.18485523 L4.43140868,9.18485523 L4.43140868,9.18485523 C4.26658477,9.18485523 3.34357084,9.24276169 4.20536446,10.3830735 L3.71560197,11.701559 L2.87264537,9.18040089 C2.87264537,9.18040089 1.81306306,9.66592428 0.866502867,10.2271715 C0.150696151,10.6503341 0.0188370188,11.1091314 0,11.7683742 L0,14 L4.42669943,14 L5.97604423,14 L8.86281736,14 L11.4905815,14 L14.1183456,14 L17.0145373,14 L18.5544636,14 L23,14 L22.9952907,11.7728285 Z" id="Shape"></path>
                            <path d="M3.98633821,8 L3.98633821,8 C3.99080502,8 3.99527184,8 3.99973866,8 C4.00420548,8 4.0086723,8 4.01313912,8 L4.01313912,8 C6.31801747,7.97824717 5.98300608,4.9807078 5.98300608,4.9807078 C5.88920289,2.97944783 4.16947776,2.99685009 3.99973866,3.00120066 C3.82999956,2.99249953 2.11027443,2.97944783 2.01647124,4.9807078 C2.01647124,4.98505836 1.68592667,7.97824717 3.98633821,8 Z" id="Shape"></path>
                        </g>
                    </g>
                </g>
            </g>
        </g>
    </g>
</svg>