<?xml version="1.0" encoding="UTF-8"?>
<svg width="21px" height="22px" viewBox="0 0 21 22" version="1.1" xmlns="http://www.w3.org/2000/svg" xmlns:xlink="http://www.w3.org/1999/xlink">
    <!-- Generator: sketchtool 47 (45396) - http://www.bohemiancoding.com/sketch -->
    <title>6DAF84AA-8B6B-44F4-B34A-81A769DA5C31</title>
    <desc>Created with sketchtool.</desc>
    <defs></defs>
    <g id="mis" stroke="none" stroke-width="1" fill="none" fill-rule="evenodd">
        <g id="unibook_light_mis_2" transform="translate(-45.000000, -833.000000)" fill-rule="nonzero" fill="#4B74FF">
            <g id="Sidebar" transform="translate(15.000000, 70.000000)">
                <g id="Navigation-Bar" transform="translate(0.000000, 156.000000)">
                    <g id="Group-11" transform="translate(30.000000, 604.000000)">
                        <g id="diplomlar" transform="translate(0.000000, 3.000000)">
                            <path d="M10.535,15.5160156 C6.181875,15.5160156 2.638125,12.0355469 2.638125,7.76015625 C2.638125,3.48046875 6.181875,0 10.535,0 C14.888125,0 18.431875,3.48046875 18.431875,7.75585937 C18.431875,12.0355469 14.888125,15.5160156 10.535,15.5160156 Z M10.535,3.61367188 C8.2075,3.61367188 6.313125,5.47421875 6.313125,7.76015625 C6.313125,10.0460938 8.2075,11.9023438 10.535,11.9023438 C12.8625,11.9023438 14.756875,10.0417969 14.756875,7.76015625 C14.756875,5.46992188 12.8625,3.61367188 10.535,3.61367188 Z" id="Shape"></path>
                            <ellipse id="Oval" cx="10.535" cy="7.75585938" rx="3.049375" ry="2.99492187"></ellipse>
                            <path d="M3.5525,13.0839844 L0.030625,18.9578125 L3.329375,19.3660156 L5.289375,22 L8.785,16.1734375 C6.545,15.8726562 4.8125,14.8242188 3.5525,13.0839844 Z" id="Shape"></path>
                            <path d="M17.4475,13.0839844 L20.97375,18.9578125 L17.675,19.3660156 L15.715,22 L12.219375,16.1734375 C14.455,15.8726562 16.1875,14.8242188 17.4475,13.0839844 Z" id="Shape"></path>
                        </g>
                    </g>
                </g>
            </g>
        </g>
    </g>
</svg>