<?xml version="1.0" encoding="UTF-8"?>
<svg width="21px" height="17px" viewBox="0 0 21 17" version="1.1" xmlns="http://www.w3.org/2000/svg" xmlns:xlink="http://www.w3.org/1999/xlink">
    <!-- Generator: sketchtool 47 (45396) - http://www.bohemiancoding.com/sketch -->
    <title>9F37CD10-CB74-41A2-B201-A07C95134065</title>
    <desc>Created with sketchtool.</desc>
    <defs></defs>
    <g id="mis" stroke="none" stroke-width="1" fill="none" fill-rule="evenodd">
        <g id="unibook_light_mis_1" transform="translate(-44.000000, -886.000000)" fill-rule="nonzero" fill="#DDE0E6">
            <g id="Sidebar" transform="translate(15.000000, 71.000000)">
                <g id="Navigation-Bar" transform="translate(0.000000, 156.000000)">
                    <g id="Group-6" transform="translate(29.000000, 653.000000)">
                        <g id="Group-10">
                            <g id="icon_mtb" transform="translate(0.000000, 6.000000)">
                                <path d="M12.3658828,12.367268 L8.6186543,12.367268 C8.30636133,12.367268 8.04099023,12.4795608 7.82237695,12.7044839 C7.60376367,12.9293648 7.49458008,13.2022506 7.49458008,13.523268 L7.49458008,15.8359007 C7.49458008,16.1569603 7.60376367,16.4302258 7.82237695,16.6549801 C8.04086719,16.8797345 8.30636133,16.9919007 8.6186543,16.9919007 L12.3658828,16.9919007 C12.6783398,16.9919007 12.9436289,16.8796079 13.1623242,16.6549801 C13.3807324,16.4300993 13.4902031,16.1569603 13.4902031,15.8359007 L13.4902031,13.523268 C13.4902031,13.2022506 13.3810195,12.9291117 13.1623242,12.7044839 C12.9436289,12.4798561 12.6783398,12.367268 12.3658828,12.367268 Z" id="Shape"></path>
                                <path d="M4.8714668,12.367268 L1.12407422,12.367268 C0.811904297,12.367268 0.546410156,12.4795608 0.327796875,12.7044839 C0.109224609,12.9293648 0,13.2023772 0,13.5234367 L0,15.836196 C0,16.1572134 0.109224609,16.4303945 0.327796875,16.6549801 C0.546410156,16.8799032 0.811904297,16.9920695 1.12407422,16.9920695 L4.8714668,16.9920695 C5.18363672,16.9920695 5.44913086,16.8797345 5.66774414,16.6549801 C5.88635742,16.4303945 5.99554102,16.1572134 5.99554102,15.836196 L5.99554102,13.5234367 C5.99554102,13.2023772 5.88635742,12.9293648 5.66774414,12.7046104 C5.44913086,12.4798561 5.18363672,12.367268 4.8714668,12.367268 Z" id="Shape"></path>
                                <path d="M4.8714668,0.034337469 L1.12407422,0.034337469 C0.811904297,0.034337469 0.546410156,0.146672457 0.327796875,0.371511166 C0.109224609,0.596349876 0,0.869404467 0,1.19046402 L0,3.50301241 C0,3.82428288 0.109224609,4.09742184 0.327796875,4.32209181 C0.546410156,4.54680397 0.811904297,4.65930769 1.12407422,4.65930769 L4.8714668,4.65930769 C5.18363672,4.65930769 5.44913086,4.54680397 5.66774414,4.32209181 C5.88635742,4.09737965 5.99554102,3.82440943 5.99554102,3.50313896 L5.99554102,1.19063275 C5.99554102,0.869573201 5.88635742,0.59651861 5.66774414,0.37155335 C5.44913086,0.146799007 5.18363672,0.034337469 4.8714668,0.034337469 Z" id="Shape"></path>
                                <path d="M12.3658828,6.20095037 L8.6186543,6.20095037 C8.30636133,6.20095037 8.04099023,6.31332754 7.82237695,6.53816625 C7.60376367,6.76300496 7.49458008,7.03584864 7.49458008,7.35711911 L7.49458008,9.66975186 C7.49458008,9.99076923 7.60376367,10.2636129 7.82237695,10.4883672 C8.04086719,10.7131638 8.30636133,10.8255831 8.6186543,10.8255831 L12.3658828,10.8255831 C12.6783398,10.8255831 12.9436289,10.7131638 13.1623242,10.4883672 C13.3807324,10.2636129 13.4902031,9.99076923 13.4902031,9.66975186 L13.4902031,7.35711911 C13.4902031,7.03584864 13.3810195,6.76287841 13.1623242,6.53816625 C12.9436289,6.31345409 12.6783398,6.20095037 12.3658828,6.20095037 Z" id="Shape"></path>
                                <path d="M4.8714668,6.20095037 L1.12407422,6.20095037 C0.811904297,6.20095037 0.546410156,6.31332754 0.327796875,6.53816625 C0.109224609,6.76287841 0,7.03584864 0,7.35711911 L0,9.66975186 C0,9.99076923 0.109224609,10.2636129 0.327796875,10.4883672 C0.546410156,10.7131638 0.811904297,10.8255831 1.12407422,10.8255831 L4.8714668,10.8255831 C5.18363672,10.8255831 5.44913086,10.7131638 5.66774414,10.4883672 C5.88635742,10.2636129 5.99554102,9.99076923 5.99554102,9.66975186 L5.99554102,7.35711911 C5.99554102,7.03584864 5.88635742,6.76287841 5.66774414,6.53816625 C5.44913086,6.31345409 5.18363672,6.20095037 4.8714668,6.20095037 Z" id="Shape"></path>
                                <path d="M20.6567813,0.371679901 C20.4380859,0.146967742 20.1727969,0.0345062035 19.860668,0.0345062035 L16.1132754,0.0345062035 C15.8011465,0.0345062035 15.5355293,0.146841191 15.316875,0.371679901 C15.0984668,0.59651861 14.9892832,0.869573201 14.9892832,1.19063275 L14.9892832,3.50318114 C14.9892832,3.82445161 15.0984668,4.0972531 15.316875,4.322134 C15.5355293,4.54684615 15.8011465,4.65934988 16.1132754,4.65934988 L19.860668,4.65934988 C20.1727969,4.65934988 20.4380859,4.54684615 20.6567813,4.322134 C20.8754766,4.09742184 20.9846602,3.82445161 20.9846602,3.50318114 L20.9846602,1.19063275 C20.9846602,0.869531017 20.8754766,0.59651861 20.6567813,0.371679901 Z" id="Shape"></path>
                                <path d="M12.3658828,0.0345062035 L8.6186543,0.0345062035 C8.30636133,0.0345062035 8.04099023,0.146841191 7.82237695,0.371679901 C7.60376367,0.59651861 7.49458008,0.869573201 7.49458008,1.19063275 L7.49458008,3.50318114 C7.49458008,3.82445161 7.60376367,4.0972531 7.82237695,4.322134 C8.04086719,4.54684615 8.30636133,4.65934988 8.6186543,4.65934988 L12.3658828,4.65934988 C12.6783398,4.65934988 12.9436289,4.5469727 13.1623242,4.322134 C13.3807324,4.09742184 13.4902031,3.82445161 13.4902031,3.50318114 L13.4902031,1.19063275 C13.4902031,0.869573201 13.3810195,0.59651861 13.1623242,0.371679901 C12.9436289,0.146967742 12.6783398,0.0345062035 12.3658828,0.0345062035 Z" id="Shape"></path>
                                <path d="M19.860668,6.20095037 L16.1132754,6.20095037 C15.8011465,6.20095037 15.5355293,6.31332754 15.316875,6.53816625 C15.0984668,6.76300496 14.9892832,7.03584864 14.9892832,7.35711911 L14.9892832,9.66975186 C14.9892832,9.99076923 15.0984668,10.2636129 15.316875,10.4883672 C15.5355293,10.7131638 15.8011465,10.8255831 16.1132754,10.8255831 L19.860668,10.8255831 C20.1727969,10.8255831 20.438373,10.7131638 20.6567813,10.4883672 C20.8754766,10.2636129 20.9846602,9.99076923 20.9846602,9.66975186 L20.9846602,7.35711911 C20.9846602,7.03584864 20.8754766,6.76287841 20.6567813,6.53816625 C20.4380859,6.31332754 20.1728379,6.20095037 19.860668,6.20095037 Z" id="Shape"></path>
                                <path d="M19.860668,12.367268 L16.1132754,12.367268 C15.8011465,12.367268 15.5355293,12.4795608 15.316875,12.7044839 C15.0984668,12.9293648 14.9892832,13.2022506 14.9892832,13.523268 L14.9892832,15.8359007 C14.9892832,16.1569603 15.0984668,16.4302258 15.316875,16.6549801 C15.5355293,16.8797345 15.8011465,16.9919007 16.1132754,16.9919007 L19.860668,16.9919007 C20.1727969,16.9919007 20.438373,16.8796079 20.6567813,16.6549801 C20.8754766,16.4300993 20.9846602,16.1569603 20.9846602,15.8359007 L20.9846602,13.523268 C20.9846602,13.2022506 20.8754766,12.9291117 20.6567813,12.7044839 C20.4380859,12.4798561 20.1728379,12.367268 19.860668,12.367268 Z" id="Shape"></path>
                            </g>
                        </g>
                    </g>
                </g>
            </g>
        </g>
    </g>
</svg>