<?xml version="1.0" encoding="UTF-8"?>
<svg width="18px" height="21px" viewBox="0 0 18 21" version="1.1" xmlns="http://www.w3.org/2000/svg" xmlns:xlink="http://www.w3.org/1999/xlink">
    <!-- Generator: sketchtool 47 (45396) - http://www.bohemiancoding.com/sketch -->
    <title>28680415-3195-4415-AE1B-75AE9389FEE5</title>
    <desc>Created with sketchtool.</desc>
    <defs></defs>
    <g id="mis" stroke="none" stroke-width="1" fill="none" fill-rule="evenodd">
        <g id="unibook_light_mis_2" transform="translate(-45.000000, -931.000000)" fill="#4B74FF">
            <g id="Sidebar" transform="translate(15.000000, 70.000000)">
                <g id="Navigation-Bar" transform="translate(0.000000, 156.000000)">
                    <g id="Group-9" transform="translate(30.000000, 702.000000)">
                        <g id="icon_soraqchalar_on" transform="translate(0.000000, 3.000000)">
                            <path d="M0.0143406593,1.78787671 L0.0143406593,19.2121712 C0.0143406593,20.1748151 0.818604396,20.9545 1.81152198,20.9545 L16.8624396,20.9545 C17.4823516,20.9545 17.9857582,20.4666575 17.9857582,19.8656164 C17.9857582,19.2643356 17.4823516,18.7764932 16.8624396,18.7764932 L3.15934615,18.7764932 C2.66503846,18.7764932 2.26082967,18.3843014 2.26082967,17.9052329 C2.26082967,17.4264041 2.66508791,17.0341644 3.15934615,17.0341644 L16.188478,17.0341644 C17.1813462,17.0341644 17.9857582,16.2542397 17.9857582,15.2915479 L17.9857582,1.78787671 C17.9857582,0.825280822 17.1813462,0.0455479452 16.188478,0.0455479452 L9.89861538,0.0455479452 L9.89861538,7.88219178 C9.89861538,7.99534247 9.85386264,8.10844521 9.76826374,8.19565753 C9.59330769,8.36538356 9.30530769,8.36538356 9.13025275,8.19565753 C9.0134011,8.07785616 7.20286813,6.61873973 7.20286813,6.61873973 C7.20286813,6.61873973 5.39238462,8.07785616 5.27543407,8.19565753 C5.10037912,8.36538356 4.81262637,8.36538356 4.63747253,8.19565753 C4.55217033,8.10844521 4.50717033,7.99534247 4.50717033,7.88219178 L4.50717033,0.0455 L1.81152198,0.0455 C0.818554945,0.0455 0.0143406593,0.825280822 0.0143406593,1.78787671 Z" id="Shape"></path>
                        </g>
                    </g>
                </g>
            </g>
        </g>
    </g>
</svg>