<?xml version="1.0" encoding="UTF-8"?>
<svg width="22px" height="14px" viewBox="0 0 22 14" version="1.1" xmlns="http://www.w3.org/2000/svg" xmlns:xlink="http://www.w3.org/1999/xlink">
    <!-- Generator: sketchtool 47 (45396) - http://www.bohemiancoding.com/sketch -->
    <title>22D29777-30C0-455F-9FB5-B87FB573893E</title>
    <desc>Created with sketchtool.</desc>
    <defs></defs>
    <g id="mis" stroke="none" stroke-width="1" fill="none" fill-rule="evenodd">
        <g id="unibook_light_mis_1" transform="translate(-44.000000, -333.000000)" fill-rule="nonzero" fill="#4B74FF">
            <g id="Sidebar" transform="translate(15.000000, 71.000000)">
                <g id="Navigation-Bar" transform="translate(0.000000, 156.000000)">
                    <g id="Group-16" transform="translate(29.000000, 99.000000)">
                        <g id="icon_telebeler_on" transform="translate(0.000000, 7.000000)">
                            <path d="M11.3358358,14 C8.04340761,14 5.73151131,11.6031714 5.69552849,11.5662971 L5.5426015,11.4326278 L5.5426015,2.66115702 L6.35221499,2.66115702 L6.35221499,11.0454478 C7.20680701,11.7875428 11.2548745,15.22607 16.1125554,11.0270107 L16.1125554,2.66115702 L16.9671474,2.66115702 L16.9671474,11.451065 L16.8457054,11.5893435 C14.8531567,13.3961836 12.9865478,14 11.3358358,14 Z" id="XMLID_659_"></path>
                            <path d="M0.816355741,5.96711533 L11.1969754,10.0562905 C11.2329256,10.0700742 11.2733696,10.0700742 11.3138136,10.0516959 L21.0248608,5.33306346 C21.1956242,5.25036104 21.1956242,4.90576763 21.020367,4.82765979 C14.4864185,1.91469682 11.205963,0.464341444 11.1790003,0.476593654 L0.807368191,5.45711709 C0.632110976,5.54441408 0.63660475,5.89360207 0.816355741,5.96711533 Z" id="XMLID_614_"></path>
                            <path d="M11.3063352,10.5289256 C11.2340957,10.5289256 11.1573413,10.5151474 11.0896168,10.4875909 L0.66004317,6.40004633 C0.402690054,6.2990059 0.235636278,6.04640483 0.226606344,5.7386908 C0.21757641,5.43097677 0.371085286,5.15541197 0.619408467,5.03600055 L11.0444671,0.0574631201 C11.202491,-0.0160208272 11.3830896,-0.0206135739 11.5456284,0.0528703734 L21.306987,4.39301601 C21.5553101,4.50324194 21.708819,4.76043575 21.717849,5.05896429 C21.7223639,5.36208557 21.57337,5.62846488 21.3250468,5.74787629 L11.5682033,10.4692199 C11.4869339,10.5059619 11.3966345,10.5289256 11.3063352,10.5289256 Z M1.40501271,5.68817059 L11.2973053,9.56444881 L20.5620174,5.08192802 L11.3018202,0.957641475 L1.40501271,5.68817059 Z" id="XMLID_619_"></path>
                            <g id="XMLID_345_" transform="translate(2.488515, 6.595041)">
                                <rect id="XMLID_618_" x="0" y="0" width="1" height="2.89256198"></rect>
                            </g>
                            <g id="XMLID_17_" transform="translate(1.809829, 8.793388)">
                                <ellipse id="XMLID_1651_" cx="0.970415611" cy="0.969748222" rx="1" ry="1"></ellipse>
                            </g>
                        </g>
                    </g>
                </g>
            </g>
        </g>
    </g>
</svg>