<?xml version="1.0" encoding="UTF-8"?>
<svg width="21px" height="18px" viewBox="0 0 21 18" version="1.1" xmlns="http://www.w3.org/2000/svg" xmlns:xlink="http://www.w3.org/1999/xlink">
    <!-- Generator: sketchtool 47 (45396) - http://www.bohemiancoding.com/sketch -->
    <title>4AEE8E20-4FEA-486B-9496-79D4D0992257</title>
    <desc>Created with sketchtool.</desc>
    <defs></defs>
    <g id="mis" stroke="none" stroke-width="1" fill="none" fill-rule="evenodd">
        <g id="unibook_light_mis_1" transform="translate(-45.000000, -687.000000)" fill-rule="nonzero" fill="#DDE0E6">
            <g id="Sidebar" transform="translate(15.000000, 71.000000)">
                <g id="Navigation-Bar" transform="translate(0.000000, 156.000000)">
                    <g id="Group-15" transform="translate(30.000000, 457.000000)">
                        <g id="icon_akamedikqruplar" transform="translate(0.000000, 3.000000)">
                            <path d="M19.0448023,5.971 C18.3874535,5.971 17.8536628,6.51725 17.8536628,7.188 C17.8536628,7.85925 18.3874535,8.40475 19.0448023,8.40475 C19.6999535,8.40475 20.2332558,7.859 20.2332558,7.188 C20.2332558,6.51725 19.6997093,5.971 19.0448023,5.971 Z M1.9547093,5.971 C1.29736047,5.971 0.763569767,6.51725 0.763569767,7.188 C0.763569767,7.85925 1.29736047,8.40475 1.9547093,8.40475 C2.61034884,8.40475 3.14389535,7.859 3.14389535,7.188 C3.14389535,6.51725 2.61034884,5.971 1.9547093,5.971 Z M15.5067907,3.7575 C14.5307791,3.7575 13.7391279,4.57 13.7391279,5.57 C13.7391279,6.568 14.5307791,7.379 15.5067907,7.379 C16.4830465,7.379 17.2771395,6.568 17.2771395,5.57 C17.2771395,4.571 16.4830465,3.7575 15.5067907,3.7575 Z M20.9970698,14.772 L18.9815581,14.772 L18.9815581,10.974 C18.9815581,10.3215 18.7942674,9.71575 18.4934302,9.1875 C18.6707093,9.1345 18.8526279,9.09675 19.0448023,9.09675 C20.1194651,9.09675 20.9970698,9.99525 20.9970698,11.09825 L20.9970698,14.772 Z M5.49003488,3.7575 C4.5132907,3.7575 3.71968605,4.57 3.71968605,5.57 C3.71968605,6.568 4.5132907,7.379 5.49003488,7.379 C6.46360465,7.379 7.2572093,6.568 7.2572093,5.57 C7.2572093,4.571 6.46384884,3.7575 5.49003488,3.7575 Z M1.9547093,9.09675 C2.14688372,9.09675 2.32636047,9.13425 2.50412791,9.1875 C2.20011628,9.71575 2.016,10.3215 2.016,10.974 L2.016,14.772 L0,14.772 L0,11.09825 C0,9.995 0.878093023,9.09675 1.9547093,9.09675 Z M10.4965814,0.13875 C9.05588372,0.13875 7.88134884,1.34 7.88134884,2.8165 C7.88134884,4.29275 9.05466279,5.4955 10.4965814,5.4955 C11.9387442,5.4955 13.1135233,4.29275 13.1135233,2.8165 C13.1147442,1.33975 11.9387442,0.13875 10.4965814,0.13875 Z M18.3342209,16.1855 L15.2464884,16.1855 L15.2464884,10.40675 C15.2464884,9.612 15.0416163,8.87275 14.7105,8.21 C14.9632326,8.1335 15.228907,8.07925 15.5070349,8.07925 C17.0649419,8.07925 18.3342209,9.37625 18.3342209,10.974 L18.3342209,16.1855 Z M5.74740698,10.40675 L5.74740698,16.1855 L2.6635814,16.1855 L2.6635814,10.974 C2.6635814,9.37775 3.93115116,8.07925 5.4915,8.07925 C5.76962791,8.07925 6.03261628,8.1335 6.28486047,8.21 C5.9535,8.87275 5.74740698,9.612 5.74740698,10.40675 Z M6.39474419,17.85825 L14.598907,17.85825 L14.598907,10.40675 C14.598907,8.09075 12.7579884,6.20725 10.4963372,6.20725 C8.23297674,6.20725 6.39474419,8.09075 6.39474419,10.40675 L6.39474419,17.85825 Z" id="Shape"></path>
                        </g>
                    </g>
                </g>
            </g>
        </g>
    </g>
</svg>