<?xml version="1.0" encoding="UTF-8"?>
<svg width="25px" height="25px" viewBox="0 0 25 25" version="1.1" xmlns="http://www.w3.org/2000/svg" xmlns:xlink="http://www.w3.org/1999/xlink">
    <!-- Generator: sketchtool 47 (45396) - http://www.bohemiancoding.com/sketch -->
    <title>88F7E8DC-947A-4784-9BC1-C91FD7C3C5A0</title>
    <desc>Created with sketchtool.</desc>
    <defs></defs>
    <g id="mis" stroke="none" stroke-width="1" fill="none" fill-rule="evenodd">
        <g id="unibook_light_mis_2" transform="translate(-42.000000, -227.000000)" stroke="#4B74FF" fill-rule="nonzero" fill="#4B74FF">
            <g id="Sidebar" transform="translate(15.000000, 70.000000)">
                <g id="Navigation-Bar" transform="translate(0.000000, 156.000000)">
                    <g id="Group-19" transform="translate(28.000000, 0.000000)">
                        <g id="icon_teshkilatistruktur_on" transform="translate(0.000000, 2.000000)">
                            <path d="M20.11146,17.25 C21.700157,17.25 23,18.54375 23,20.125 C23,21.70625 21.700157,23 20.11146,23 C18.6310832,23 17.4215071,21.9039063 17.2409733,20.484375 L11.5,20.484375 C11.3014129,20.484375 11.1389325,20.3226562 11.1389325,20.125 L11.1389325,12.3085938 L5.75902669,12.3085938 C5.57849294,13.728125 4.3689168,14.8242188 2.88854003,14.8242188 C1.29984301,14.8242188 0,13.5304687 0,11.9492188 C0,10.3679688 1.29984301,9.07421875 2.88854003,9.07421875 C4.3689168,9.07421875 5.57849294,10.1703125 5.75902669,11.5898438 L11.1389325,11.5898438 L11.1389325,2.875 C11.1389325,2.67734375 11.3014129,2.515625 11.5,2.515625 L17.2409733,2.515625 C17.4215071,1.09609375 18.6310832,0 20.11146,0 C21.700157,0 23,1.29375 23,2.875 C23,4.45625 21.700157,5.75 20.11146,5.75 C18.6310832,5.75 17.4215071,4.65390625 17.2409733,3.234375 L11.8610675,3.234375 L11.8610675,11.2125 L11.8610675,11.5898438 L12.0416013,11.5898438 L12.2040816,11.5898438 L17.2409733,11.5898438 C17.4215071,10.1703125 18.6310832,9.07421875 20.11146,9.07421875 C21.700157,9.07421875 23,10.3679688 23,11.9492188 C23,13.5304687 21.700157,14.8242188 20.11146,14.8242188 C18.6310832,14.8242188 17.4215071,13.728125 17.2409733,12.3085938 L12.8720565,12.3085938 L11.8610675,12.3085938 L11.8610675,19.765625 L17.2409733,19.765625 C17.4215071,18.3460937 18.6491366,17.25 20.11146,17.25 L20.11146,17.25 Z M20.11146,17.96875 C18.9199372,17.96875 17.9450549,18.9390625 17.9450549,20.125 C17.9450549,21.3109375 18.9199372,22.28125 20.11146,22.28125 C21.3029827,22.28125 22.277865,21.3109375 22.277865,20.125 C22.277865,18.9390625 21.3029827,17.96875 20.11146,17.96875 L20.11146,17.96875 Z M20.11146,0.71875 C18.9199372,0.71875 17.9450549,1.6890625 17.9450549,2.875 C17.9450549,4.0609375 18.9199372,5.03125 20.11146,5.03125 C21.3029827,5.03125 22.277865,4.0609375 22.277865,2.875 C22.277865,1.6890625 21.3029827,0.71875 20.11146,0.71875 L20.11146,0.71875 Z M20.11146,9.79296875 C18.9199372,9.79296875 17.9450549,10.7632813 17.9450549,11.9492188 C17.9450549,13.1351563 18.9199372,14.1054688 20.11146,14.1054688 C21.3029827,14.1054688 22.277865,13.1351563 22.277865,11.9492188 C22.277865,10.7632813 21.3029827,9.79296875 20.11146,9.79296875 L20.11146,9.79296875 Z M2.90659341,9.79296875 C1.71507064,9.79296875 0.740188383,10.7632813 0.740188383,11.9492188 C0.740188383,13.1351563 1.71507064,14.1054688 2.90659341,14.1054688 C4.09811617,14.1054688 5.07299843,13.1351563 5.07299843,11.9492188 C5.07299843,10.7632813 4.09811617,9.79296875 2.90659341,9.79296875 Z" id="XMLID_17_"></path>
                        </g>
                    </g>
                </g>
            </g>
        </g>
    </g>
</svg>