<?xml version="1.0" encoding="UTF-8"?>
<svg width="23px" height="14px" viewBox="0 0 23 14" version="1.1" xmlns="http://www.w3.org/2000/svg" xmlns:xlink="http://www.w3.org/1999/xlink">
    <!-- Generator: sketchtool 47.1 (45422) - http://www.bohemiancoding.com/sketch -->
    <title>28A685E4-43AF-4171-BB6C-83C33BAAC536</title>
    <desc>Created with sketchtool.</desc>
    <defs></defs>
    <g id="MIS" stroke="none" stroke-width="1" fill="none" fill-rule="evenodd">
        <g id="unibook_light_mis_2" transform="translate(-43.000000, -236.000000)" fill-rule="nonzero" fill="#4B74FF">
            <g id="Sidebar" transform="translate(15.000000, 70.000000)">
                <g id="icon_beynelxalqelaqeler_on" transform="translate(28.000000, 166.000000)">
                    <path d="M5.55831836,1.08409961 C4.79163672,0.317417969 1.53331836,0.12578125 0.479136719,0.0299179688 C0.383318359,0.0299179688 0.287455078,0.0299179688 0.191636719,0.125736328 C0.0958183594,0.221599609 0,0.41328125 0,0.509099609 L0,9.13409961 C0,9.42159961 0.191681641,9.61328125 0.479181641,9.61328125 L3.35418164,9.61328125 C3.54586328,9.61328125 3.7375,9.51746289 3.83336328,9.32578125 C3.83336328,9.03828125 5.55836328,3.95909961 5.75004492,1.46746289 C5.75,1.37159961 5.75,1.17996289 5.55831836,1.08409961 Z" id="Shape"></path>
                    <path d="M15.8125,3.38409961 C14.8541816,3.09659961 13.9916816,2.71328125 13.225,2.42578125 C11.5,1.65909961 10.7333184,2.04246289 9.2,3.57578125 C8.52918164,4.24659961 8.05,5.20496289 8.14581836,5.58828125 C8.14581836,5.68409961 8.14581836,5.68409961 8.3375,5.77996289 C8.81668164,5.97164453 9.4875,6.06746289 10.1583184,5.01328125 C10.2541367,4.91746289 10.35,4.82159961 10.5416367,4.82159961 C10.8291367,4.82159961 10.9249551,4.72578125 11.2124551,4.62991797 C11.4041367,4.53409961 11.5957734,4.43823633 11.8832734,4.34241797 C11.9790918,4.34241797 11.9790918,4.34241797 12.0749551,4.34241797 C12.1707734,4.34241797 12.3624551,4.43823633 12.4582734,4.43823633 C12.9375,4.91746289 13.8,5.58828125 14.6625,6.35496289 C16.0041816,7.40914453 17.3458184,8.55914453 18.0166816,9.42164453 L18.1125,9.42164453 C17.4416816,7.50496289 16.2916816,4.24659961 15.8125,3.38409961 Z" id="Shape"></path>
                    <path d="M22.5208184,0.98828125 C18.7833184,0.98828125 16.675,1.94659961 16.5791367,1.94659961 C16.4833184,2.04241797 16.3874551,2.13828125 16.2916367,2.23409961 C16.2916367,2.32991797 16.2916367,2.52159961 16.3874551,2.61741797 C16.9624551,3.57573633 18.8791367,8.84659961 19.1666367,10.1882363 C19.2624551,10.379918 19.4541367,10.5715547 19.6458184,10.5715547 L22.5208184,10.5715547 C22.8083184,10.5715547 23,10.379873 23,10.092373 L23,1.46737305 C23,1.17996289 22.8083184,0.98828125 22.5208184,0.98828125 Z" id="Shape"></path>
                    <path d="M17.3458184,10.3799629 C16.9625,9.51746289 15.3333184,8.27164453 13.8958184,7.12164453 C13.1291816,6.45078125 12.3625,5.87578125 11.7875,5.39659961 C11.6916816,5.49241797 11.5,5.49241797 11.5,5.58828125 C11.2125,5.68409961 11.1166816,5.77996289 10.7333184,5.77996289 C9.96668164,6.73828125 9.00831836,7.12159961 7.95418164,6.73828125 C7.475,6.64246289 7.1875,6.25909961 7.09168164,5.87578125 C6.9,4.91746289 7.7625,3.57578125 8.43336328,2.90496289 L6.51668164,2.90496289 C6.13336328,4.82164453 5.4625,7.31328125 4.98336328,8.65496289 C5.36668164,9.03828125 5.75004492,9.51746289 6.03754492,9.70914453 C7.85836328,11.2424629 9.96672656,12.7758262 10.3500449,13.0633262 C10.6375449,13.2550078 11.2125449,13.4466445 11.5000449,13.4466445 C11.5958633,13.4466445 11.6917266,13.4466445 11.7875449,13.4466445 L10.2541816,11.9132813 C10.0625,11.7215996 10.0625,11.4340996 10.2541816,11.2424629 C10.4458633,11.0508262 10.7333633,11.0507812 10.925,11.2424629 L12.8416816,13.1591445 C13.0333633,13.3508262 13.225,13.2549629 13.4166816,13.2549629 C13.7041816,13.1591445 13.8,12.9674629 13.8958633,12.6799629 L11.6916816,10.4757813 C11.5,10.2840996 11.5,9.99659961 11.6916816,9.80496289 C11.8833633,9.61332617 12.1708633,9.61328125 12.3625,9.80496289 L14.7583184,12.2007813 C14.8541367,12.2965996 15.2375,12.2965996 15.525,12.2007813 C15.6208184,12.1049629 15.8125,12.0090996 15.9083184,11.8174629 L13.225,9.13409961 C13.0333184,8.94241797 13.0333184,8.65491797 13.225,8.46328125 C13.4166816,8.27164453 13.7041816,8.27159961 13.8958184,8.46328125 L16.675,11.2424629 C16.8666816,11.3382813 17.0583184,11.2424629 17.25,11.1466445 C17.3458184,11.0507812 17.5375,10.7632813 17.3458184,10.3799629 Z" id="Shape"></path>
                </g>
            </g>
        </g>
    </g>
</svg>