<?xml version="1.0" encoding="UTF-8"?>
<svg width="21px" height="18px" viewBox="0 0 21 18" version="1.1" xmlns="http://www.w3.org/2000/svg" xmlns:xlink="http://www.w3.org/1999/xlink">
    <!-- Generator: sketchtool 47 (45396) - http://www.bohemiancoding.com/sketch -->
    <title>C686AC23-4558-4DD4-8330-D5DE5EB4EA4C</title>
    <desc>Created with sketchtool.</desc>
    <defs></defs>
    <g id="mis" stroke="none" stroke-width="1" fill="none" fill-rule="evenodd">
        <g id="unibook_light_mis_2" transform="translate(-46.000000, -786.000000)" fill-rule="nonzero" fill="#4B74FF">
            <g id="Sidebar" transform="translate(15.000000, 70.000000)">
                <g id="Navigation-Bar" transform="translate(0.000000, 156.000000)">
                    <g id="Group-13" transform="translate(31.000000, 555.000000)">
                        <g id="icon_elanlar_on" transform="translate(0.000000, 5.000000)">
                            <g id="Group">
                                <g transform="translate(0.000000, 0.585000)" id="Shape">
                                    <path d="M7.85328358,16.897905 L7.43852239,17.21385 C7.03643284,17.520165 6.46334328,17.44092 6.15855224,17.036775 L3.16101493,13.06251 C3.07983582,12.95487 3.10083582,12.80151 3.2079403,12.719925 L4.6910597,11.59011 C4.79816418,11.508525 4.95076119,11.52963 5.0319403,11.63727 L8.02947761,15.611535 C8.33426866,16.01568 8.25537313,16.59159 7.85328358,16.897905 Z"></path>
                                    <path d="M5.80871642,13.41999 L3.96143284,13.92237 C3.60765672,14.01858 3.24326866,13.80834 3.14753731,13.452795 L2.64761194,11.596275 C2.5518806,11.24073 2.76107463,10.87452 3.11485075,10.77831 L4.96213433,10.27593 C5.31591045,10.17972 5.68029851,10.38996 5.77602985,10.745505 L6.27591045,12.602025 C6.37168657,12.957525 6.16249254,13.323735 5.80871642,13.41999 Z"></path>
                                    <path d="M6.8071791,11.12994 L3.35802985,12.140955 C1.96853731,12.51882 0.537313433,11.69316 0.161328358,10.29672 L0.0999850746,10.068975 C-0.276,8.672535 0.545552239,7.234155 1.93504478,6.85629 L5.38419403,5.845275 L6.8071791,11.12994 Z"></path>
                                    <path d="M16.1217313,12.2283 L15.8349851,12.178395 C14.5883731,11.683035 13.2051493,11.031885 11.9357463,11.009475 L6.8071791,11.129895 L5.38423881,5.845185 L9.52361194,3.70215 C10.8667612,2.9196 11.9387015,1.42785 12.8949403,0.069075 L12.8949403,0.069075 C13.0714478,-0.033345 13.299,0.09513 13.3631642,0.333495 L16.4417015,11.766735 C16.5121791,12.028545 16.346597,12.267405 16.1217313,12.2283 Z"></path>
                                </g>
                                <g transform="translate(16.029851, 0.000000)" id="Shape">
                                    <path d="M1.97704478,5.52834 C1.93092537,5.3478 2.03914925,5.163885 2.21879104,5.11749 L4.51737313,4.5243 C4.69701493,4.47795 4.88001493,4.586715 4.9261791,4.767255 C4.97229851,4.947795 4.86407463,5.13171 4.68443284,5.178105 L2.38585075,5.771295 C2.20620896,5.817645 2.02316418,5.708835 1.97704478,5.52834 Z"></path>
                                    <path d="M0.0122238806,2.19447 C-0.0117313433,2.10069 0.00443283582,1.997325 0.065238806,1.91268 L1.33347761,0.148725 C1.44210448,-0.00234 1.65201493,-0.036315 1.80237313,0.072855 C1.95264179,0.182025 1.98649254,0.392985 1.87786567,0.544095 L0.609626866,2.30805 C0.501,2.459115 0.291089552,2.493135 0.140731343,2.38392 C0.0745970149,2.33586 0.0310298507,2.268135 0.0122238806,2.19447 Z"></path>
                                    <path d="M1.9468209,9.766215 C1.92801493,9.69255 1.93370149,9.61209 1.96862687,9.537975 C2.04801493,9.369495 2.24825373,9.29763 2.41589552,9.377415 L4.37283582,10.309095 C4.54043284,10.388925 4.6119403,10.59021 4.53259701,10.7586 C4.45316418,10.92708 4.25297015,10.998945 4.08532836,10.91916 L2.12834328,9.98748 C2.03453731,9.94275 1.97077612,9.859995 1.9468209,9.766215 Z"></path>
                                </g>
                            </g>
                        </g>
                    </g>
                </g>
            </g>
        </g>
    </g>
</svg>