<?xml version="1.0" encoding="UTF-8"?>
<svg width="18px" height="21px" viewBox="0 0 18 21" version="1.1" xmlns="http://www.w3.org/2000/svg" xmlns:xlink="http://www.w3.org/1999/xlink">
    <!-- Generator: sketchtool 47 (45396) - http://www.bohemiancoding.com/sketch -->
    <title>27A0EDD1-80B3-444A-9F30-076056950822</title>
    <desc>Created with sketchtool.</desc>
    <defs></defs>
    <g id="mis" stroke="none" stroke-width="1" fill="none" fill-rule="evenodd">
        <g id="unibook_light_mis_2" transform="translate(-47.000000, -978.000000)" fill-rule="nonzero" fill="#4B74FF">
            <g id="Sidebar" transform="translate(15.000000, 70.000000)">
                <g id="Navigation-Bar" transform="translate(0.000000, 156.000000)">
                    <g id="Group-7" transform="translate(32.000000, 751.000000)">
                        <g id="icon_emrler_on" transform="translate(0.000000, 1.000000)">
                            <path d="M17.5218321,14.8344617 C17.4696183,14.5404617 17.3443397,14.1751028 17.0542443,13.8538679 C16.6476641,13.40331 16.0440802,13.1749478 15.2605305,13.1749478 C13.5276183,13.1749478 10.7783588,11.9850392 10.7783588,8.79221697 C10.7783588,7.06281729 11.8247977,4.98498206 11.8353092,4.96442741 C11.8386069,4.95795269 11.8416985,4.95147798 11.8447214,4.94486623 C12.1407939,4.44035237 12.2969885,3.86896737 12.2969885,3.28805873 C12.2970916,1.47500163 10.8180687,0 9.0001374,0 C7.18220611,0 5.70308015,1.47500163 5.70308015,3.28809299 C5.70308015,3.86896737 5.85927481,4.4404894 6.15534733,4.94490049 C6.15833588,4.9513752 6.16146183,4.95784992 6.16465649,4.96415334 C6.17516794,4.98498206 7.22170992,7.06281729 7.22170992,8.79225122 C7.22170992,11.9852104 4.47245038,13.1749821 2.73953817,13.1749821 C1.95598855,13.1749821 1.35250763,13.4033442 0.945824427,13.8539021 C0.655729008,14.1752055 0.530450382,14.5404959 0.478236641,14.8344959 C0.217545802,14.8514535 0.010648855,15.0655644 0.010648855,15.3298287 L0.010648855,18.0814796 C0.010648855,18.3569119 0.234549618,18.5801011 0.510629771,18.5801011 L17.4893359,18.5801011 C17.765416,18.5801011 17.9893168,18.3569119 17.9893168,18.0814796 L17.9893168,15.3298287 C17.9894198,15.0654959 17.7825229,14.8514192 17.5218321,14.8344617 Z" id="Shape"></path>
                            <path d="M16.6372901,19.0226427 L1.36301908,19.0226427 C1.08693893,19.0226427 0.863038168,19.245832 0.863038168,19.5212643 L0.863038168,20.467155 C0.863038168,20.7425873 1.08693893,20.9657765 1.36301908,20.9657765 L16.6372901,20.9657765 C16.9133702,20.9657765 17.137271,20.7425873 17.137271,20.467155 L17.137271,19.5212643 C17.137271,19.2457977 16.9133702,19.0226427 16.6372901,19.0226427 Z" id="Shape"></path>
                        </g>
                    </g>
                </g>
            </g>
        </g>
    </g>
</svg>