<?xml version="1.0" encoding="utf-8"?>
<!-- Generator: Adobe Illustrator 22.0.1, SVG Export Plug-In . SVG Version: 6.00 Build 0)  -->
<svg version="1.1" id="Capa_1" xmlns="http://www.w3.org/2000/svg" xmlns:xlink="http://www.w3.org/1999/xlink" x="0px" y="0px"
	 viewBox="0 0 2059 327.6" style="enable-background:new 0 0 2059 327.6;" xml:space="preserve">
<style type="text/css">
	.st0{fill:#FFFFFF;}
</style>
<g>
	<polygon class="st0" points="219.1,151.7 219.1,260.7 112.8,318 6.5,260.7 6.5,151.7 112.8,209 	"/>
</g>
<g>
	<path class="st0" d="M45.2,106.6v38.7l67.7,36.7l67.7-36.7v-38.7l-67.7,36.7L45.2,106.6z M112.8,8L6.5,66l106.3,58l87-47.4v64.8
		l19.3-9.5V66L112.8,8z"/>
</g>
<g>
	<path class="st0" d="M442.9,224.8h-24.6v-51.3h-48.1v51.3h-24.6V105.1h24.6v48.5h48.1v-48.5h24.6V224.8z"/>
	<path class="st0" d="M552.1,125.1h-36.6v99.7h-24.6v-99.7h-36.1v-20h97.4V125.1z"/>
	<path class="st0" d="M590.8,182.6v42.1h-24.6V105.1h46.7c9,0,16.9,1.6,23.7,4.9c6.8,3.3,12.1,8,15.7,14c3.7,6.1,5.5,12.9,5.5,20.7
		c0,11.7-4,21-12,27.7c-8,6.8-19.1,10.1-33.3,10.1H590.8z M590.8,162.6h22c6.5,0,11.5-1.5,14.9-4.6c3.4-3.1,5.1-7.4,5.1-13.1
		c0-5.9-1.7-10.6-5.2-14.2c-3.5-3.6-8.2-5.5-14.3-5.6h-22.6V162.6z"/>
	<path class="st0" d="M749.7,105.3l30.7,86.8l30.6-86.8h32.4v119.6h-24.7v-32.7l2.5-56.4l-32.3,89.1h-16.9l-32.2-89.1l2.5,56.4v32.7
		h-24.6V105.3H749.7z"/>
	<path class="st0" d="M896.3,134.3c12.4,0,22.6,4,30.4,12.1c7.8,8.1,11.7,18.8,11.7,32.2v2.4c0,8.7-1.7,16.6-5,23.5
		c-3.3,7-8,12.4-14.1,16.2c-6.1,3.8-13.1,5.7-20.9,5.7c-11.8,0-21.1-3.5-27.8-10.6c-6.7-7.1-10-17-10-29.9v-13h53.7
		c-0.9-6.1-3.1-10.9-6.7-14.4c-3.6-3.5-8.2-5.2-13.8-5.2c-7.7,0-14.3,1.3-19.8,3.9l-4.9,2.5l-6.5-15.4c4-3.2,9-5.7,14.9-7.5
		C883.4,135.2,889.6,134.3,896.3,134.3z M898.4,207.3c4.2,0,7.7-1.6,10.4-4.7c2.7-3.1,4.5-7.6,5.3-13.5h-30.2v2.1
		c0,5.3,1.3,9.2,3.8,12C890.2,206,893.8,207.3,898.4,207.3z"/>
	<path class="st0" d="M977.4,224.9h-23.8V98.7h23.8V224.9z"/>
	<path class="st0" d="M1050.2,215.9c-5.9,7.1-14,10.7-24.3,10.7c-9.5,0-16.8-2.7-21.8-8.2c-5-5.5-7.6-13.5-7.7-24.1V136h23.7v57.5
		c0,9.3,4.2,13.9,12.7,13.9c8.1,0,13.6-2.8,16.6-8.4v-63h23.8v88.9h-22.3L1050.2,215.9z"/>
	<path class="st0" d="M1113.4,136l0.7,9.9c6.3-7.7,14.8-11.6,25.6-11.6c11.4,0,19.3,4.5,23.6,13.6c6.2-9,15.1-13.6,26.7-13.6
		c9.6,0,16.8,2.8,21.5,8.4c4.7,5.6,7.1,14.1,7.1,25.3v56.8h-23.8v-56.7c0-5-1-8.7-3-11c-2-2.3-5.5-3.5-10.4-3.5
		c-7.1,0-12.1,3.4-14.8,10.2l0.1,61h-23.7v-56.6c0-5.1-1-8.9-3-11.2c-2-2.3-5.5-3.5-10.4-3.5c-6.7,0-11.6,2.8-14.6,8.4v62.8h-23.7
		V136H1113.4z"/>
	<path class="st0" d="M1288.3,224.9c-1.1-2.1-1.9-4.8-2.4-8c-5.8,6.4-13.2,9.6-22.4,9.6c-8.7,0-15.9-2.5-21.6-7.6
		c-5.7-5-8.6-11.4-8.6-19.1c0-9.4,3.5-16.6,10.5-21.7c7-5,17.1-7.6,30.3-7.6h10.9v-5.1c0-4.1-1.1-7.4-3.2-9.9
		c-2.1-2.5-5.4-3.7-10-3.7c-4,0-7.1,1-9.4,2.9c-2.3,1.9-3.4,4.5-3.4,7.9h-23.7c0-5.1,1.6-9.9,4.8-14.3c3.2-4.4,7.7-7.8,13.5-10.3
		c5.8-2.5,12.3-3.7,19.6-3.7c11,0,19.6,2.8,26.1,8.3c6.4,5.5,9.7,13.2,9.7,23.2v38.5c0.1,8.4,1.2,14.8,3.5,19.1v1.4H1288.3z
		 M1268.7,208.4c3.5,0,6.7-0.8,9.7-2.3s5.1-3.7,6.6-6.3v-15.3h-8.9c-11.9,0-18.2,4.1-19,12.3l-0.1,1.4c0,3,1,5.4,3.1,7.3
		C1262.2,207.4,1265.1,208.4,1268.7,208.4z"/>
	<path class="st0" d="M1355.4,114.2V136h15.2v17.4h-15.2v44.4c0,3.3,0.6,5.6,1.9,7.1c1.3,1.4,3.7,2.1,7.2,2.1c2.6,0,5-0.2,7-0.6v18
		c-4.7,1.4-9.4,2.1-14.4,2.1c-16.7,0-25.1-8.4-25.5-25.2v-47.9h-13V136h13v-21.9H1355.4z"/>
	<path class="st0" d="M1489.3,193.5c0-4.7-1.6-8.2-4.9-10.7c-3.3-2.5-9.2-5.1-17.7-7.9c-8.5-2.8-15.3-5.5-20.3-8.2
		c-13.6-7.3-20.4-17.2-20.4-29.7c0-6.5,1.8-12.2,5.5-17.3c3.6-5.1,8.9-9,15.7-11.9c6.8-2.8,14.5-4.3,23-4.3c8.5,0,16.2,1.5,22.8,4.6
		c6.7,3.1,11.9,7.5,15.6,13.1c3.7,5.6,5.5,12.1,5.5,19.2h-24.6c0-5.5-1.7-9.7-5.2-12.8c-3.5-3-8.3-4.6-14.5-4.6
		c-6,0-10.7,1.3-14,3.8c-3.3,2.5-5,5.9-5,10.1c0,3.9,2,7.1,5.9,9.8c3.9,2.6,9.7,5.1,17.3,7.4c14,4.2,24.2,9.4,30.6,15.7
		c6.4,6.2,9.6,14,9.6,23.3c0,10.4-3.9,18.5-11.7,24.4c-7.8,5.9-18.4,8.8-31.6,8.8c-9.2,0-17.6-1.7-25.1-5.1
		c-7.6-3.4-13.3-8-17.3-13.8c-4-5.9-6-12.7-6-20.4h24.7c0,13.2,7.9,19.8,23.7,19.8c5.9,0,10.4-1.2,13.7-3.6
		S1489.3,197.8,1489.3,193.5z"/>
	<path class="st0" d="M1529,113c0-3.6,1.2-6.5,3.6-8.8c2.4-2.3,5.6-3.5,9.7-3.5c4.1,0,7.3,1.2,9.7,3.5c2.4,2.3,3.6,5.2,3.6,8.8
		c0,3.6-1.2,6.6-3.7,8.9c-2.4,2.3-5.7,3.5-9.7,3.5c-4,0-7.2-1.2-9.7-3.5C1530.2,119.6,1529,116.6,1529,113z M1554.2,224.9h-23.8V136
		h23.8V224.9z"/>
	<path class="st0" d="M1621.9,200.4c0-2.9-1.4-5.2-4.3-6.9c-2.9-1.7-7.5-3.2-13.8-4.5c-21.1-4.4-31.7-13.4-31.7-26.9
		c0-7.9,3.3-14.5,9.8-19.8c6.5-5.3,15.1-7.9,25.7-7.9c11.3,0,20.3,2.7,27.1,8c6.8,5.3,10.1,12.2,10.1,20.7H1621
		c0-3.4-1.1-6.2-3.3-8.4c-2.2-2.2-5.6-3.3-10.3-3.3c-4,0-7.1,0.9-9.3,2.7c-2.2,1.8-3.3,4.1-3.3,6.9c0,2.6,1.2,4.8,3.7,6.4
		c2.5,1.6,6.7,3,12.6,4.2c5.9,1.2,10.9,2.5,15,4c12.5,4.6,18.8,12.6,18.8,23.9c0,8.1-3.5,14.7-10.4,19.7c-7,5-15.9,7.5-26.9,7.5
		c-7.4,0-14.1-1.3-19.8-4c-5.8-2.7-10.3-6.3-13.6-10.9c-3.3-4.6-4.9-9.6-4.9-15h22.5c0.2,4.2,1.8,7.4,4.7,9.7
		c2.9,2.2,6.8,3.4,11.7,3.4c4.5,0,8-0.9,10.3-2.6C1620.8,205.4,1621.9,203.1,1621.9,200.4z"/>
	<path class="st0" d="M1688.7,114.2V136h15.2v17.4h-15.2v44.4c0,3.3,0.6,5.6,1.9,7.1c1.3,1.4,3.7,2.1,7.2,2.1c2.6,0,5-0.2,7-0.6v18
		c-4.7,1.4-9.4,2.1-14.4,2.1c-16.7,0-25.1-8.4-25.5-25.2v-47.9h-13V136h13v-21.9H1688.7z"/>
	<path class="st0" d="M1758.1,226.6c-13,0-23.6-4-31.8-12c-8.2-8-12.3-18.6-12.3-32v-2.3c0-8.9,1.7-16.9,5.2-23.9
		c3.5-7,8.3-12.5,14.7-16.3c6.3-3.8,13.5-5.7,21.6-5.7c12.2,0,21.7,3.8,28.7,11.5c7,7.7,10.5,18.5,10.5,32.6v9.7H1738
		c0.8,5.8,3.1,10.5,6.9,14c3.9,3.5,8.7,5.3,14.7,5.3c9.1,0,16.3-3.3,21.4-9.9l11.7,13.1c-3.6,5-8.4,9-14.5,11.8
		C1772.2,225.1,1765.5,226.6,1758.1,226.6z M1755.4,153.5c-4.7,0-8.5,1.6-11.5,4.8c-2.9,3.2-4.8,7.8-5.6,13.7h33v-1.9
		c-0.1-5.3-1.5-9.4-4.3-12.3C1764.3,155,1760.4,153.5,1755.4,153.5z"/>
	<path class="st0" d="M1830.4,136l0.7,9.9c6.3-7.7,14.8-11.6,25.6-11.6c11.4,0,19.3,4.5,23.6,13.6c6.2-9,15.1-13.6,26.7-13.6
		c9.6,0,16.8,2.8,21.5,8.4c4.7,5.6,7.1,14.1,7.1,25.3v56.8h-23.8v-56.7c0-5-1-8.7-3-11c-2-2.3-5.5-3.5-10.4-3.5
		c-7.1,0-12.1,3.4-14.8,10.2l0.1,61h-23.7v-56.6c0-5.1-1-8.9-3-11.2c-2-2.3-5.5-3.5-10.4-3.5c-6.7,0-11.6,2.8-14.6,8.4v62.8h-23.7
		V136H1830.4z"/>
	<path class="st0" d="M1953.6,113c0-3.6,1.2-6.5,3.6-8.8s5.6-3.5,9.7-3.5c4.1,0,7.3,1.2,9.7,3.5c2.4,2.3,3.6,5.2,3.6,8.8
		c0,3.6-1.2,6.6-3.7,8.9c-2.4,2.3-5.7,3.5-9.7,3.5c-4,0-7.2-1.2-9.7-3.5C1954.8,119.6,1953.6,116.6,1953.6,113z M1978.8,224.9H1955
		V136h23.8V224.9z"/>
</g>
</svg>
