<?xml version="1.0" encoding="UTF-8"?>
<svg width="12px" height="12px" viewBox="0 0 12 12" version="1.1" xmlns="http://www.w3.org/2000/svg" xmlns:xlink="http://www.w3.org/1999/xlink">
    <!-- Generator: sketchtool 47 (45396) - http://www.bohemiancoding.com/sketch -->
    <title>AFC3E5E6-A7DA-44CE-8FC2-4C94D2CD494F</title>
    <desc>Created with sketchtool.</desc>
    <defs></defs>
    <g id="mis" stroke="none" stroke-width="1" fill="none" fill-rule="evenodd">
        <g id="unibook_light_mis_3" transform="translate(-1417.000000, -275.000000)" fill-rule="nonzero" fill="#6B7897">
            <g id="info" transform="translate(1118.000000, 259.000000)">
                <g id="Group-10">
                    <g id="close" transform="translate(299.000000, 16.000000)">
                        <path d="M6,0 C2.68660714,0 0,2.68660714 0,6 C0,9.31339286 2.68660714,12 6,12 C9.31339286,12 12,9.31339286 12,6 C12,2.68660714 9.31339286,0 6,0 Z M8.90089286,8.02232143 C8.94107143,8.0625 8.9625,8.11607143 8.9625,8.17232143 C8.9625,8.22857143 8.94107143,8.28482143 8.90089286,8.32232143 L8.32232143,8.90357143 C8.27946429,8.94642857 8.22589286,8.96517857 8.17232143,8.96517857 C8.11875,8.96517857 8.0625,8.94375 8.02232143,8.90357143 L6,6.87857143 L3.98035714,8.90625 C3.94017857,8.94910714 3.88392857,8.96785714 3.83035714,8.96785714 C3.77678571,8.96785714 3.72053571,8.94642857 3.68035714,8.90625 L3.10178571,8.325 C3.06160714,8.28482143 3.04017857,8.23125 3.04017857,8.175 C3.04017857,8.11875 3.06160714,8.0625 3.10178571,8.025 L5.12946429,5.98928571 L3.09642857,3.98035714 C3.01339286,3.89732143 3.01339286,3.76071429 3.09642857,3.67767857 L3.675,3.09642857 C3.71517857,3.05625 3.76875,3.03482143 3.825,3.03482143 C3.88125,3.03482143 3.93482143,3.05625 3.975,3.09642857 L6.00267857,5.09732143 L8.03035714,3.09642857 C8.07053571,3.05625 8.12410714,3.03482143 8.18035714,3.03482143 C8.23660714,3.03482143 8.29017857,3.05625 8.33035714,3.09642857 L8.90892857,3.67767857 C8.99196429,3.76071429 8.99196429,3.89732143 8.90892857,3.98035714 L6.87589286,5.98928571 L8.90089286,8.02232143 Z" id="Shape"></path>
                    </g>
                </g>
            </g>
        </g>
    </g>
</svg>