<?xml version="1.0" encoding="UTF-8"?>
<svg width="1081px" height="730px" viewBox="0 0 1081 730" version="1.1" xmlns="http://www.w3.org/2000/svg" xmlns:xlink="http://www.w3.org/1999/xlink">
    <!-- Generator: sketchtool 47 (45396) - http://www.bohemiancoding.com/sketch -->
    <title>1035536A-45EC-456D-B08F-536A0398CCB9</title>
    <desc>Created with sketchtool.</desc>
    <defs>
        <rect id="path-1" x="0" y="0" width="1063" height="713" rx="6"></rect>
        <filter x="-1.4%" y="-1.8%" width="102.8%" height="104.2%" filterUnits="objectBoundingBox" id="filter-2">
            <feMorphology radius="0.5" operator="dilate" in="SourceAlpha" result="shadowSpreadOuter1"></feMorphology>
            <feOffset dx="0" dy="2" in="shadowSpreadOuter1" result="shadowOffsetOuter1"></feOffset>
            <feGaussianBlur stdDeviation="4.5" in="shadowOffsetOuter1" result="shadowBlurOuter1"></feGaussianBlur>
            <feComposite in="shadowBlurOuter1" in2="SourceAlpha" operator="out" result="shadowBlurOuter1"></feComposite>
            <feColorMatrix values="0 0 0 0 0   0 0 0 0 0   0 0 0 0 0  0 0 0 0.02 0" type="matrix" in="shadowBlurOuter1"></feColorMatrix>
        </filter>
    </defs>
    <g id="mis" stroke="none" stroke-width="1" fill="none" fill-rule="evenodd">
        <g id="unibook_light_mis_5-empty" transform="translate(-373.000000, -294.000000)">
            <g id="table" transform="translate(382.000000, 301.000000)">
                <g id="background">
                    <use fill="black" fill-opacity="1" filter="url(#filter-2)" xlink:href="#path-1"></use>
                    <use stroke="#ECE9FA" stroke-width="1" fill="#FFFFFF" fill-rule="evenodd" xlink:href="#path-1"></use>
                </g>
                <g id="Group-21" transform="translate(0.000000, 41.000000)">
                    <g id="Group-3">
                        <rect id="background" stroke="#ECE9FA" fill="#FFFFFF" x="0" y="0" width="1063" height="48"></rect>
                        <g id="if_menu2_309052" transform="translate(1027.000000, 24.000000) rotate(-270.000000) translate(-1027.000000, -24.000000) translate(1025.000000, 15.000000)" fill-rule="nonzero" fill="#D8DDE6">
                            <circle id="Oval" cx="2" cy="9" r="2"></circle>
                            <circle id="Oval" cx="2" cy="2" r="2"></circle>
                            <circle id="Oval" cx="2" cy="16" r="2"></circle>
                        </g>
                        <rect id="Rectangle-2" fill="#D8DDE6" x="70" y="13" width="199" height="8" rx="4"></rect>
                        <rect id="Rectangle-2" fill="#D8DDE6" x="321" y="13" width="181" height="8" rx="4"></rect>
                        <rect id="Rectangle-2" fill="#D8DDE6" x="570" y="13" width="94" height="8" rx="4"></rect>
                        <rect id="Rectangle-2" fill="#D8DDE6" x="703" y="13" width="36" height="8" rx="4"></rect>
                        <rect id="Rectangle-2" fill="#D8DDE6" x="765" y="13" width="73" height="8" rx="4"></rect>
                        <rect id="Rectangle-2" fill="#D8DDE6" x="17" y="13" width="36" height="8" rx="4"></rect>
                        <rect id="Rectangle-2-Copy" fill="#D8DDE6" x="70" y="29" width="98" height="8" rx="4"></rect>
                        <rect id="Rectangle-2" fill="#D8DDE6" x="860" y="13" width="58" height="8" rx="4"></rect>
                        <rect id="Rectangle-2-Copy" fill="#D8DDE6" x="860" y="29" width="42" height="8" rx="4"></rect>
                        <rect id="Rectangle-2" fill="#D8DDE6" x="948" y="13" width="58" height="8" rx="4"></rect>
                        <rect id="Rectangle-2-Copy" fill="#D8DDE6" x="948" y="29" width="42" height="8" rx="4"></rect>
                    </g>
                </g>
                <g id="Group-21" transform="translate(0.000000, 89.000000)">
                    <g id="Group-3">
                        <rect id="background" stroke="#ECE9FA" fill="#FFFFFF" x="0" y="0" width="1063" height="48"></rect>
                        <g id="if_menu2_309052" transform="translate(1027.000000, 24.000000) rotate(-270.000000) translate(-1027.000000, -24.000000) translate(1025.000000, 15.000000)" fill-rule="nonzero" fill="#D8DDE6">
                            <circle id="Oval" cx="2" cy="9" r="2"></circle>
                            <circle id="Oval" cx="2" cy="2" r="2"></circle>
                            <circle id="Oval" cx="2" cy="16" r="2"></circle>
                        </g>
                        <rect id="Rectangle-2" fill="#D8DDE6" x="70" y="13" width="199" height="8" rx="4"></rect>
                        <rect id="Rectangle-2" fill="#D8DDE6" x="321" y="13" width="181" height="8" rx="4"></rect>
                        <rect id="Rectangle-2" fill="#D8DDE6" x="570" y="13" width="94" height="8" rx="4"></rect>
                        <rect id="Rectangle-2" fill="#D8DDE6" x="703" y="13" width="36" height="8" rx="4"></rect>
                        <rect id="Rectangle-2" fill="#D8DDE6" x="765" y="13" width="73" height="8" rx="4"></rect>
                        <rect id="Rectangle-2" fill="#D8DDE6" x="17" y="13" width="36" height="8" rx="4"></rect>
                        <rect id="Rectangle-2-Copy" fill="#D8DDE6" x="70" y="29" width="98" height="8" rx="4"></rect>
                        <rect id="Rectangle-2" fill="#D8DDE6" x="860" y="13" width="58" height="8" rx="4"></rect>
                        <rect id="Rectangle-2-Copy" fill="#D8DDE6" x="860" y="29" width="42" height="8" rx="4"></rect>
                        <rect id="Rectangle-2" fill="#D8DDE6" x="948" y="13" width="58" height="8" rx="4"></rect>
                        <rect id="Rectangle-2-Copy" fill="#D8DDE6" x="948" y="29" width="42" height="8" rx="4"></rect>
                    </g>
                </g>
                <g id="Group-21" transform="translate(0.000000, 137.000000)">
                    <g id="Group-3">
                        <rect id="background" stroke="#ECE9FA" fill="#FFFFFF" x="0" y="0" width="1063" height="48"></rect>
                        <g id="if_menu2_309052" transform="translate(1027.000000, 24.000000) rotate(-270.000000) translate(-1027.000000, -24.000000) translate(1025.000000, 15.000000)" fill-rule="nonzero" fill="#D8DDE6">
                            <circle id="Oval" cx="2" cy="9" r="2"></circle>
                            <circle id="Oval" cx="2" cy="2" r="2"></circle>
                            <circle id="Oval" cx="2" cy="16" r="2"></circle>
                        </g>
                        <rect id="Rectangle-2" fill="#D8DDE6" x="70" y="13" width="199" height="8" rx="4"></rect>
                        <rect id="Rectangle-2" fill="#D8DDE6" x="321" y="13" width="181" height="8" rx="4"></rect>
                        <rect id="Rectangle-2" fill="#D8DDE6" x="570" y="13" width="94" height="8" rx="4"></rect>
                        <rect id="Rectangle-2" fill="#D8DDE6" x="703" y="13" width="36" height="8" rx="4"></rect>
                        <rect id="Rectangle-2" fill="#D8DDE6" x="765" y="13" width="73" height="8" rx="4"></rect>
                        <rect id="Rectangle-2" fill="#D8DDE6" x="17" y="13" width="36" height="8" rx="4"></rect>
                        <rect id="Rectangle-2-Copy" fill="#D8DDE6" x="70" y="29" width="98" height="8" rx="4"></rect>
                        <rect id="Rectangle-2" fill="#D8DDE6" x="860" y="13" width="58" height="8" rx="4"></rect>
                        <rect id="Rectangle-2-Copy" fill="#D8DDE6" x="860" y="29" width="42" height="8" rx="4"></rect>
                        <rect id="Rectangle-2" fill="#D8DDE6" x="948" y="13" width="58" height="8" rx="4"></rect>
                        <rect id="Rectangle-2-Copy" fill="#D8DDE6" x="948" y="29" width="42" height="8" rx="4"></rect>
                    </g>
                </g>
                <g id="Group-21" transform="translate(0.000000, 185.000000)">
                    <g id="Group-3">
                        <rect id="background" stroke="#ECE9FA" fill="#FFFFFF" x="0" y="0" width="1063" height="48"></rect>
                        <g id="if_menu2_309052" transform="translate(1027.000000, 24.000000) rotate(-270.000000) translate(-1027.000000, -24.000000) translate(1025.000000, 15.000000)" fill-rule="nonzero" fill="#D8DDE6">
                            <circle id="Oval" cx="2" cy="9" r="2"></circle>
                            <circle id="Oval" cx="2" cy="2" r="2"></circle>
                            <circle id="Oval" cx="2" cy="16" r="2"></circle>
                        </g>
                        <rect id="Rectangle-2" fill="#D8DDE6" x="70" y="13" width="199" height="8" rx="4"></rect>
                        <rect id="Rectangle-2" fill="#D8DDE6" x="321" y="13" width="181" height="8" rx="4"></rect>
                        <rect id="Rectangle-2" fill="#D8DDE6" x="570" y="13" width="94" height="8" rx="4"></rect>
                        <rect id="Rectangle-2" fill="#D8DDE6" x="703" y="13" width="36" height="8" rx="4"></rect>
                        <rect id="Rectangle-2" fill="#D8DDE6" x="765" y="13" width="73" height="8" rx="4"></rect>
                        <rect id="Rectangle-2" fill="#D8DDE6" x="17" y="13" width="36" height="8" rx="4"></rect>
                        <rect id="Rectangle-2-Copy" fill="#D8DDE6" x="70" y="29" width="98" height="8" rx="4"></rect>
                        <rect id="Rectangle-2" fill="#D8DDE6" x="860" y="13" width="58" height="8" rx="4"></rect>
                        <rect id="Rectangle-2-Copy" fill="#D8DDE6" x="860" y="29" width="42" height="8" rx="4"></rect>
                        <rect id="Rectangle-2" fill="#D8DDE6" x="948" y="13" width="58" height="8" rx="4"></rect>
                        <rect id="Rectangle-2-Copy" fill="#D8DDE6" x="948" y="29" width="42" height="8" rx="4"></rect>
                    </g>
                </g>
                <g id="Group-21" transform="translate(0.000000, 233.000000)">
                    <g id="Group-3">
                        <rect id="background" stroke="#ECE9FA" fill="#FFFFFF" x="0" y="0" width="1063" height="48"></rect>
                        <g id="if_menu2_309052" transform="translate(1027.000000, 24.000000) rotate(-270.000000) translate(-1027.000000, -24.000000) translate(1025.000000, 15.000000)" fill-rule="nonzero" fill="#D8DDE6">
                            <circle id="Oval" cx="2" cy="9" r="2"></circle>
                            <circle id="Oval" cx="2" cy="2" r="2"></circle>
                            <circle id="Oval" cx="2" cy="16" r="2"></circle>
                        </g>
                        <rect id="Rectangle-2" fill="#D8DDE6" x="70" y="13" width="199" height="8" rx="4"></rect>
                        <rect id="Rectangle-2" fill="#D8DDE6" x="321" y="13" width="181" height="8" rx="4"></rect>
                        <rect id="Rectangle-2" fill="#D8DDE6" x="570" y="13" width="94" height="8" rx="4"></rect>
                        <rect id="Rectangle-2" fill="#D8DDE6" x="703" y="13" width="36" height="8" rx="4"></rect>
                        <rect id="Rectangle-2" fill="#D8DDE6" x="765" y="13" width="73" height="8" rx="4"></rect>
                        <rect id="Rectangle-2" fill="#D8DDE6" x="17" y="13" width="36" height="8" rx="4"></rect>
                        <rect id="Rectangle-2-Copy" fill="#D8DDE6" x="70" y="29" width="98" height="8" rx="4"></rect>
                        <rect id="Rectangle-2" fill="#D8DDE6" x="860" y="13" width="58" height="8" rx="4"></rect>
                        <rect id="Rectangle-2-Copy" fill="#D8DDE6" x="860" y="29" width="42" height="8" rx="4"></rect>
                        <rect id="Rectangle-2" fill="#D8DDE6" x="948" y="13" width="58" height="8" rx="4"></rect>
                        <rect id="Rectangle-2-Copy" fill="#D8DDE6" x="948" y="29" width="42" height="8" rx="4"></rect>
                    </g>
                </g>
                <g id="Group-21" transform="translate(0.000000, 281.000000)">
                    <g id="Group-3">
                        <rect id="background" stroke="#ECE9FA" fill="#FFFFFF" x="0" y="0" width="1063" height="48"></rect>
                        <g id="if_menu2_309052" transform="translate(1027.000000, 24.000000) rotate(-270.000000) translate(-1027.000000, -24.000000) translate(1025.000000, 15.000000)" fill-rule="nonzero" fill="#D8DDE6">
                            <circle id="Oval" cx="2" cy="9" r="2"></circle>
                            <circle id="Oval" cx="2" cy="2" r="2"></circle>
                            <circle id="Oval" cx="2" cy="16" r="2"></circle>
                        </g>
                        <rect id="Rectangle-2" fill="#D8DDE6" x="70" y="13" width="199" height="8" rx="4"></rect>
                        <rect id="Rectangle-2" fill="#D8DDE6" x="321" y="13" width="181" height="8" rx="4"></rect>
                        <rect id="Rectangle-2" fill="#D8DDE6" x="570" y="13" width="94" height="8" rx="4"></rect>
                        <rect id="Rectangle-2" fill="#D8DDE6" x="703" y="13" width="36" height="8" rx="4"></rect>
                        <rect id="Rectangle-2" fill="#D8DDE6" x="765" y="13" width="73" height="8" rx="4"></rect>
                        <rect id="Rectangle-2" fill="#D8DDE6" x="17" y="13" width="36" height="8" rx="4"></rect>
                        <rect id="Rectangle-2-Copy" fill="#D8DDE6" x="70" y="29" width="98" height="8" rx="4"></rect>
                        <rect id="Rectangle-2" fill="#D8DDE6" x="860" y="13" width="58" height="8" rx="4"></rect>
                        <rect id="Rectangle-2-Copy" fill="#D8DDE6" x="860" y="29" width="42" height="8" rx="4"></rect>
                        <rect id="Rectangle-2" fill="#D8DDE6" x="948" y="13" width="58" height="8" rx="4"></rect>
                        <rect id="Rectangle-2-Copy" fill="#D8DDE6" x="948" y="29" width="42" height="8" rx="4"></rect>
                    </g>
                </g>
                <g id="Group-21" transform="translate(0.000000, 329.000000)">
                    <g id="Group-3">
                        <rect id="background" stroke="#ECE9FA" fill="#FFFFFF" x="0" y="0" width="1063" height="48"></rect>
                        <g id="if_menu2_309052" transform="translate(1027.000000, 24.000000) rotate(-270.000000) translate(-1027.000000, -24.000000) translate(1025.000000, 15.000000)" fill-rule="nonzero" fill="#D8DDE6">
                            <circle id="Oval" cx="2" cy="9" r="2"></circle>
                            <circle id="Oval" cx="2" cy="2" r="2"></circle>
                            <circle id="Oval" cx="2" cy="16" r="2"></circle>
                        </g>
                        <rect id="Rectangle-2" fill="#D8DDE6" x="70" y="13" width="199" height="8" rx="4"></rect>
                        <rect id="Rectangle-2" fill="#D8DDE6" x="321" y="13" width="181" height="8" rx="4"></rect>
                        <rect id="Rectangle-2" fill="#D8DDE6" x="570" y="13" width="94" height="8" rx="4"></rect>
                        <rect id="Rectangle-2" fill="#D8DDE6" x="703" y="13" width="36" height="8" rx="4"></rect>
                        <rect id="Rectangle-2" fill="#D8DDE6" x="765" y="13" width="73" height="8" rx="4"></rect>
                        <rect id="Rectangle-2" fill="#D8DDE6" x="17" y="13" width="36" height="8" rx="4"></rect>
                        <rect id="Rectangle-2-Copy" fill="#D8DDE6" x="70" y="29" width="98" height="8" rx="4"></rect>
                        <rect id="Rectangle-2" fill="#D8DDE6" x="860" y="13" width="58" height="8" rx="4"></rect>
                        <rect id="Rectangle-2-Copy" fill="#D8DDE6" x="860" y="29" width="42" height="8" rx="4"></rect>
                        <rect id="Rectangle-2" fill="#D8DDE6" x="948" y="13" width="58" height="8" rx="4"></rect>
                        <rect id="Rectangle-2-Copy" fill="#D8DDE6" x="948" y="29" width="42" height="8" rx="4"></rect>
                    </g>
                </g>
                <g id="Group-21" transform="translate(0.000000, 377.000000)">
                    <g id="Group-3">
                        <rect id="background" stroke="#ECE9FA" fill="#FFFFFF" x="0" y="0" width="1063" height="48"></rect>
                        <g id="if_menu2_309052" transform="translate(1027.000000, 24.000000) rotate(-270.000000) translate(-1027.000000, -24.000000) translate(1025.000000, 15.000000)" fill-rule="nonzero" fill="#D8DDE6">
                            <circle id="Oval" cx="2" cy="9" r="2"></circle>
                            <circle id="Oval" cx="2" cy="2" r="2"></circle>
                            <circle id="Oval" cx="2" cy="16" r="2"></circle>
                        </g>
                        <rect id="Rectangle-2" fill="#D8DDE6" x="70" y="13" width="199" height="8" rx="4"></rect>
                        <rect id="Rectangle-2" fill="#D8DDE6" x="321" y="13" width="181" height="8" rx="4"></rect>
                        <rect id="Rectangle-2" fill="#D8DDE6" x="570" y="13" width="94" height="8" rx="4"></rect>
                        <rect id="Rectangle-2" fill="#D8DDE6" x="703" y="13" width="36" height="8" rx="4"></rect>
                        <rect id="Rectangle-2" fill="#D8DDE6" x="765" y="13" width="73" height="8" rx="4"></rect>
                        <rect id="Rectangle-2" fill="#D8DDE6" x="17" y="13" width="36" height="8" rx="4"></rect>
                        <rect id="Rectangle-2-Copy" fill="#D8DDE6" x="70" y="29" width="98" height="8" rx="4"></rect>
                        <rect id="Rectangle-2" fill="#D8DDE6" x="860" y="13" width="58" height="8" rx="4"></rect>
                        <rect id="Rectangle-2-Copy" fill="#D8DDE6" x="860" y="29" width="42" height="8" rx="4"></rect>
                        <rect id="Rectangle-2" fill="#D8DDE6" x="948" y="13" width="58" height="8" rx="4"></rect>
                        <rect id="Rectangle-2-Copy" fill="#D8DDE6" x="948" y="29" width="42" height="8" rx="4"></rect>
                    </g>
                </g>
                <g id="Group-21" transform="translate(0.000000, 425.000000)">
                    <g id="Group-3">
                        <rect id="background" stroke="#ECE9FA" fill="#FFFFFF" x="0" y="0" width="1063" height="48"></rect>
                        <g id="if_menu2_309052" transform="translate(1027.000000, 24.000000) rotate(-270.000000) translate(-1027.000000, -24.000000) translate(1025.000000, 15.000000)" fill-rule="nonzero" fill="#D8DDE6">
                            <circle id="Oval" cx="2" cy="9" r="2"></circle>
                            <circle id="Oval" cx="2" cy="2" r="2"></circle>
                            <circle id="Oval" cx="2" cy="16" r="2"></circle>
                        </g>
                        <rect id="Rectangle-2" fill="#D8DDE6" x="70" y="13" width="199" height="8" rx="4"></rect>
                        <rect id="Rectangle-2" fill="#D8DDE6" x="321" y="13" width="181" height="8" rx="4"></rect>
                        <rect id="Rectangle-2" fill="#D8DDE6" x="570" y="13" width="94" height="8" rx="4"></rect>
                        <rect id="Rectangle-2" fill="#D8DDE6" x="703" y="13" width="36" height="8" rx="4"></rect>
                        <rect id="Rectangle-2" fill="#D8DDE6" x="765" y="13" width="73" height="8" rx="4"></rect>
                        <rect id="Rectangle-2" fill="#D8DDE6" x="17" y="13" width="36" height="8" rx="4"></rect>
                        <rect id="Rectangle-2-Copy" fill="#D8DDE6" x="70" y="29" width="98" height="8" rx="4"></rect>
                        <rect id="Rectangle-2" fill="#D8DDE6" x="860" y="13" width="58" height="8" rx="4"></rect>
                        <rect id="Rectangle-2-Copy" fill="#D8DDE6" x="860" y="29" width="42" height="8" rx="4"></rect>
                        <rect id="Rectangle-2" fill="#D8DDE6" x="948" y="13" width="58" height="8" rx="4"></rect>
                        <rect id="Rectangle-2-Copy" fill="#D8DDE6" x="948" y="29" width="42" height="8" rx="4"></rect>
                    </g>
                </g>
                <g id="Group-21" transform="translate(0.000000, 473.000000)">
                    <g id="Group-3">
                        <rect id="background" stroke="#ECE9FA" fill="#FFFFFF" x="0" y="0" width="1063" height="48"></rect>
                        <g id="if_menu2_309052" transform="translate(1027.000000, 24.000000) rotate(-270.000000) translate(-1027.000000, -24.000000) translate(1025.000000, 15.000000)" fill-rule="nonzero" fill="#D8DDE6">
                            <circle id="Oval" cx="2" cy="9" r="2"></circle>
                            <circle id="Oval" cx="2" cy="2" r="2"></circle>
                            <circle id="Oval" cx="2" cy="16" r="2"></circle>
                        </g>
                        <rect id="Rectangle-2" fill="#D8DDE6" x="70" y="13" width="199" height="8" rx="4"></rect>
                        <rect id="Rectangle-2" fill="#D8DDE6" x="321" y="13" width="181" height="8" rx="4"></rect>
                        <rect id="Rectangle-2" fill="#D8DDE6" x="570" y="13" width="94" height="8" rx="4"></rect>
                        <rect id="Rectangle-2" fill="#D8DDE6" x="703" y="13" width="36" height="8" rx="4"></rect>
                        <rect id="Rectangle-2" fill="#D8DDE6" x="765" y="13" width="73" height="8" rx="4"></rect>
                        <rect id="Rectangle-2" fill="#D8DDE6" x="17" y="13" width="36" height="8" rx="4"></rect>
                        <rect id="Rectangle-2-Copy" fill="#D8DDE6" x="70" y="29" width="98" height="8" rx="4"></rect>
                        <rect id="Rectangle-2" fill="#D8DDE6" x="860" y="13" width="58" height="8" rx="4"></rect>
                        <rect id="Rectangle-2-Copy" fill="#D8DDE6" x="860" y="29" width="42" height="8" rx="4"></rect>
                        <rect id="Rectangle-2" fill="#D8DDE6" x="948" y="13" width="58" height="8" rx="4"></rect>
                        <rect id="Rectangle-2-Copy" fill="#D8DDE6" x="948" y="29" width="42" height="8" rx="4"></rect>
                    </g>
                </g>
                <g id="Group-21" transform="translate(0.000000, 521.000000)">
                    <g id="Group-3">
                        <rect id="background" stroke="#ECE9FA" fill="#FFFFFF" x="0" y="0" width="1063" height="48"></rect>
                        <g id="if_menu2_309052" transform="translate(1027.000000, 24.000000) rotate(-270.000000) translate(-1027.000000, -24.000000) translate(1025.000000, 15.000000)" fill-rule="nonzero" fill="#D8DDE6">
                            <circle id="Oval" cx="2" cy="9" r="2"></circle>
                            <circle id="Oval" cx="2" cy="2" r="2"></circle>
                            <circle id="Oval" cx="2" cy="16" r="2"></circle>
                        </g>
                        <rect id="Rectangle-2" fill="#D8DDE6" x="70" y="13" width="199" height="8" rx="4"></rect>
                        <rect id="Rectangle-2" fill="#D8DDE6" x="321" y="13" width="181" height="8" rx="4"></rect>
                        <rect id="Rectangle-2" fill="#D8DDE6" x="570" y="13" width="94" height="8" rx="4"></rect>
                        <rect id="Rectangle-2" fill="#D8DDE6" x="703" y="13" width="36" height="8" rx="4"></rect>
                        <rect id="Rectangle-2" fill="#D8DDE6" x="765" y="13" width="73" height="8" rx="4"></rect>
                        <rect id="Rectangle-2" fill="#D8DDE6" x="17" y="13" width="36" height="8" rx="4"></rect>
                        <rect id="Rectangle-2-Copy" fill="#D8DDE6" x="70" y="29" width="98" height="8" rx="4"></rect>
                        <rect id="Rectangle-2" fill="#D8DDE6" x="860" y="13" width="58" height="8" rx="4"></rect>
                        <rect id="Rectangle-2-Copy" fill="#D8DDE6" x="860" y="29" width="42" height="8" rx="4"></rect>
                        <rect id="Rectangle-2" fill="#D8DDE6" x="948" y="13" width="58" height="8" rx="4"></rect>
                        <rect id="Rectangle-2-Copy" fill="#D8DDE6" x="948" y="29" width="42" height="8" rx="4"></rect>
                    </g>
                </g>
                <g id="Group-21" transform="translate(0.000000, 569.000000)">
                    <g id="Group-3">
                        <rect id="background" stroke="#ECE9FA" fill="#FFFFFF" x="0" y="0" width="1063" height="48"></rect>
                        <g id="if_menu2_309052" transform="translate(1027.000000, 24.000000) rotate(-270.000000) translate(-1027.000000, -24.000000) translate(1025.000000, 15.000000)" fill-rule="nonzero" fill="#D8DDE6">
                            <circle id="Oval" cx="2" cy="9" r="2"></circle>
                            <circle id="Oval" cx="2" cy="2" r="2"></circle>
                            <circle id="Oval" cx="2" cy="16" r="2"></circle>
                        </g>
                        <rect id="Rectangle-2" fill="#D8DDE6" x="70" y="13" width="199" height="8" rx="4"></rect>
                        <rect id="Rectangle-2" fill="#D8DDE6" x="321" y="13" width="181" height="8" rx="4"></rect>
                        <rect id="Rectangle-2" fill="#D8DDE6" x="570" y="13" width="94" height="8" rx="4"></rect>
                        <rect id="Rectangle-2" fill="#D8DDE6" x="703" y="13" width="36" height="8" rx="4"></rect>
                        <rect id="Rectangle-2" fill="#D8DDE6" x="765" y="13" width="73" height="8" rx="4"></rect>
                        <rect id="Rectangle-2" fill="#D8DDE6" x="17" y="13" width="36" height="8" rx="4"></rect>
                        <rect id="Rectangle-2-Copy" fill="#D8DDE6" x="70" y="29" width="98" height="8" rx="4"></rect>
                        <rect id="Rectangle-2" fill="#D8DDE6" x="860" y="13" width="58" height="8" rx="4"></rect>
                        <rect id="Rectangle-2-Copy" fill="#D8DDE6" x="860" y="29" width="42" height="8" rx="4"></rect>
                        <rect id="Rectangle-2" fill="#D8DDE6" x="948" y="13" width="58" height="8" rx="4"></rect>
                        <rect id="Rectangle-2-Copy" fill="#D8DDE6" x="948" y="29" width="42" height="8" rx="4"></rect>
                    </g>
                </g>
                <g id="Group-21" transform="translate(0.000000, 617.000000)">
                    <g id="Group-3">
                        <rect id="background" stroke="#ECE9FA" fill="#FFFFFF" x="0" y="0" width="1063" height="48"></rect>
                        <g id="if_menu2_309052" transform="translate(1027.000000, 24.000000) rotate(-270.000000) translate(-1027.000000, -24.000000) translate(1025.000000, 15.000000)" fill-rule="nonzero" fill="#D8DDE6">
                            <circle id="Oval" cx="2" cy="9" r="2"></circle>
                            <circle id="Oval" cx="2" cy="2" r="2"></circle>
                            <circle id="Oval" cx="2" cy="16" r="2"></circle>
                        </g>
                        <rect id="Rectangle-2" fill="#D8DDE6" x="70" y="13" width="199" height="8" rx="4"></rect>
                        <rect id="Rectangle-2" fill="#D8DDE6" x="321" y="13" width="181" height="8" rx="4"></rect>
                        <rect id="Rectangle-2" fill="#D8DDE6" x="570" y="13" width="94" height="8" rx="4"></rect>
                        <rect id="Rectangle-2" fill="#D8DDE6" x="703" y="13" width="36" height="8" rx="4"></rect>
                        <rect id="Rectangle-2" fill="#D8DDE6" x="765" y="13" width="73" height="8" rx="4"></rect>
                        <rect id="Rectangle-2" fill="#D8DDE6" x="17" y="13" width="36" height="8" rx="4"></rect>
                        <rect id="Rectangle-2-Copy" fill="#D8DDE6" x="70" y="29" width="98" height="8" rx="4"></rect>
                        <rect id="Rectangle-2" fill="#D8DDE6" x="860" y="13" width="58" height="8" rx="4"></rect>
                        <rect id="Rectangle-2-Copy" fill="#D8DDE6" x="860" y="29" width="42" height="8" rx="4"></rect>
                        <rect id="Rectangle-2" fill="#D8DDE6" x="948" y="13" width="58" height="8" rx="4"></rect>
                        <rect id="Rectangle-2-Copy" fill="#D8DDE6" x="948" y="29" width="42" height="8" rx="4"></rect>
                    </g>
                </g>
                <g id="Group-21" transform="translate(0.000000, 665.000000)">
                    <g id="Group-3">
                        <rect id="background" stroke="#ECE9FA" fill="#FFFFFF" x="0" y="0" width="1063" height="48"></rect>
                        <g id="if_menu2_309052" transform="translate(1027.000000, 24.000000) rotate(-270.000000) translate(-1027.000000, -24.000000) translate(1025.000000, 15.000000)" fill-rule="nonzero" fill="#D8DDE6">
                            <circle id="Oval" cx="2" cy="9" r="2"></circle>
                            <circle id="Oval" cx="2" cy="2" r="2"></circle>
                            <circle id="Oval" cx="2" cy="16" r="2"></circle>
                        </g>
                        <rect id="Rectangle-2" fill="#D8DDE6" x="70" y="13" width="199" height="8" rx="4"></rect>
                        <rect id="Rectangle-2" fill="#D8DDE6" x="321" y="13" width="181" height="8" rx="4"></rect>
                        <rect id="Rectangle-2" fill="#D8DDE6" x="570" y="13" width="94" height="8" rx="4"></rect>
                        <rect id="Rectangle-2" fill="#D8DDE6" x="703" y="13" width="36" height="8" rx="4"></rect>
                        <rect id="Rectangle-2" fill="#D8DDE6" x="765" y="13" width="73" height="8" rx="4"></rect>
                        <rect id="Rectangle-2" fill="#D8DDE6" x="17" y="13" width="36" height="8" rx="4"></rect>
                        <rect id="Rectangle-2-Copy" fill="#D8DDE6" x="70" y="29" width="98" height="8" rx="4"></rect>
                        <rect id="Rectangle-2" fill="#D8DDE6" x="860" y="13" width="58" height="8" rx="4"></rect>
                        <rect id="Rectangle-2-Copy" fill="#D8DDE6" x="860" y="29" width="42" height="8" rx="4"></rect>
                        <rect id="Rectangle-2" fill="#D8DDE6" x="948" y="13" width="58" height="8" rx="4"></rect>
                        <rect id="Rectangle-2-Copy" fill="#D8DDE6" x="948" y="29" width="42" height="8" rx="4"></rect>
                    </g>
                </g>
                <path d="M6,0 L1057,0 L1057,0 C1060.31371,-6.08718376e-16 1063,2.6862915 1063,6 L1063,41 L0,41 L0,6 L0,6 C-4.05812251e-16,2.6862915 2.6862915,6.08718376e-16 6,0 Z" id="background" stroke="#ECE9FA" fill="#F3F5F9"></path>
                <g id="personal-info" transform="translate(18.000000, 13.000000)">
                    <g id="Group-12"></g>
                </g>
                <g id="Group-5" transform="translate(18.000000, 19.000000)" fill="#6B7897">
                    <rect id="Rectangle-Copy-14" x="0" y="0" width="17" height="3" rx="1.5"></rect>
                    <rect id="Rectangle-Copy-14" x="53" y="0" width="77" height="3" rx="1.5"></rect>
                    <rect id="Rectangle-Copy-14" x="303" y="0" width="35" height="3" rx="1.5"></rect>
                    <rect id="Rectangle-Copy-14" x="556" y="0" width="71" height="3" rx="1.5"></rect>
                    <rect id="Rectangle-Copy-14" x="687" y="0" width="25" height="3" rx="1.5"></rect>
                    <rect id="Rectangle-Copy-14" x="750" y="0" width="64" height="3" rx="1.5"></rect>
                    <rect id="Rectangle-Copy-14" x="844" y="0" width="34" height="3" rx="1.5"></rect>
                    <rect id="Rectangle-Copy-14" x="931" y="0" width="27" height="3" rx="1.5"></rect>
                </g>
            </g>
        </g>
    </g>
</svg>