<?xml version="1.0" encoding="UTF-8"?>
<svg width="18px" height="18px" viewBox="0 0 18 18" version="1.1" xmlns="http://www.w3.org/2000/svg" xmlns:xlink="http://www.w3.org/1999/xlink">
    <!-- Generator: sketchtool 47 (45396) - http://www.bohemiancoding.com/sketch -->
    <title>4E5FFCEB-6C80-48B0-97B2-A15BD607FA16</title>
    <desc>Created with sketchtool.</desc>
    <defs>
        <path d="M20.515625,19.015625 L25.484375,23.984375 L23.984375,25.484375 L19.015625,20.515625 L19.015625,19.71875 L18.734375,19.4375 C17.5156189,20.4687552 16.109383,20.984375 14.515625,20.984375 C12.7031159,20.984375 11.1640688,20.3515688 9.8984375,19.0859375 C8.63280617,17.8203062 8,16.2890715 8,14.4921875 C8,12.6953035 8.63280617,11.1640688 9.8984375,9.8984375 C11.1640688,8.63280617 12.6953035,8 14.4921875,8 C16.2890715,8 17.8203062,8.63280617 19.0859375,9.8984375 C20.3515688,11.1640688 20.984375,12.7031159 20.984375,14.515625 C20.984375,16.109383 20.4687552,17.5156189 19.4375,18.734375 L19.71875,19.015625 L20.515625,19.015625 Z M14.515625,19.015625 C15.7656313,19.015625 16.8281206,18.5781294 17.703125,17.703125 C18.5781294,16.8281206 19.015625,15.7656312 19.015625,14.515625 C19.015625,13.2656188 18.5781294,12.2031294 17.703125,11.328125 C16.8281206,10.4531206 15.7656313,10.015625 14.515625,10.015625 C13.2656187,10.015625 12.2031294,10.4531206 11.328125,11.328125 C10.4531206,12.2031294 10.015625,13.2656188 10.015625,14.515625 C10.015625,15.7656312 10.4531206,16.8281206 11.328125,17.703125 C12.2031294,18.5781294 13.2656187,19.015625 14.515625,19.015625 Z" id="path-1"></path>
    </defs>
    <g id="mis" stroke="none" stroke-width="1" fill="none" fill-rule="evenodd">
        <g id="unibook_light_mis_5-empty" transform="translate(-1094.000000, -130.000000)">
            <g id="Top-bar" transform="translate(383.000000, 90.000000)">
                <g id="Search" transform="translate(703.000000, 32.000000)">
                    <g id="Group">
                        <g>
                            <mask id="mask-2" fill="white">
                                <use xlink:href="#path-1"></use>
                            </mask>
                            <use id="Mask" fill="#FFFFFF" xlink:href="#path-1"></use>
                        </g>
                    </g>
                </g>
            </g>
        </g>
    </g>
</svg>